<?xml version="1.0" encoding="UTF-8" standalone="no"?>
<!DOCTYPE svg PUBLIC "-//W3C//DTD SVG 1.1//EN" "http://www.w3.org/Graphics/SVG/1.1/DTD/svg11.dtd">
<svg version="1.1" xmlns="http://www.w3.org/2000/svg" xmlns:xlink="http://www.w3.org/1999/xlink" preserveAspectRatio="xMidYMid meet" viewBox="0 0 640 640" width="640" height="640"><defs><path d="M2.03 70.85L140.77 154.48" id="j40dXJqruL"></path><path d="M104.17 104.29L165.3 140.85L104.17 178.32L43.04 140.85L104.17 104.29Z" id="a2FHsc9vlD"></path><path d="M43.04 140.85L43.04 214.74L103.99 252.72L104.01 178.13L43.04 140.85Z" id="ad7WsWfSM"></path><path d="M51.61 161.13L51.61 165.56L55.26 167.84L55.26 163.36L51.61 161.13Z" id="a3qOLm9nds"></path><path d="M51.61 169.79L51.61 174.22L55.26 176.5L55.26 172.03L51.61 169.79Z" id="b1FLbgEFGz"></path><path d="M51.61 178.46L51.61 182.89L55.26 185.17L55.26 180.69L51.61 178.46Z" id="e13vaoHQl4"></path><path d="M51.61 187.12L51.61 191.55L55.26 193.83L55.26 189.36L51.61 187.12Z" id="apSRnDAc2"></path><path d="M51.61 195.79L51.61 200.22L55.26 202.5L55.26 198.02L51.61 195.79Z" id="j2s9Ygi1O"></path><path d="M51.61 204.45L51.61 208.88L55.26 211.16L55.26 206.69L51.61 204.45Z" id="atQLvOpvV"></path><path d="M58.45 165.69L58.45 170.12L77.49 181.66L77.49 177.18L58.45 165.69Z" id="e8vqEgEy"></path><path d="M82.19 179.62L82.19 184.05L94.79 191.33L94.79 186.86L82.19 179.62Z" id="a26DvbgM5V"></path><path d="M82.19 187.88L82.19 192.31L94.79 199.59L94.79 195.11L82.19 187.88Z" id="ahcLfzTAY"></path><path d="M82.19 196.13L82.19 200.57L94.79 207.84L94.79 203.37L82.19 196.13Z" id="bLYFZep8J"></path><path d="M82.19 204.39L82.19 208.82L94.79 216.1L94.79 211.63L82.19 204.39Z" id="c9IvQ3Xmh"></path><path d="M82.19 213.16L82.19 217.6L94.79 224.87L94.79 220.4L82.19 213.16Z" id="iuXrRh6JY"></path><path d="M82.19 221.94L82.19 226.37L94.79 233.65L94.79 229.17L82.19 221.94Z" id="a6xOFsYIl"></path><path d="M58.45 173.9L58.45 178.33L77.49 189.87L77.49 185.39L58.45 173.9Z" id="b5Szc2DcUA"></path><path d="M58.45 182.11L58.45 186.54L77.49 198.08L77.49 193.6L58.45 182.11Z" id="b2oID7Xpv"></path><path d="M58.45 190.77L58.45 195.2L77.49 206.74L77.49 202.27L58.45 190.77Z" id="c3c7In851y"></path><path d="M58.45 199.44L58.45 203.87L77.49 215.41L77.49 210.93L58.45 199.44Z" id="fvomvrWr3"></path><path d="M58.45 208.1L58.45 212.53L77.49 224.07L77.49 219.6L58.45 208.1Z" id="d2UOQgVjWx"></path><path d="M165.3 140.85L165.3 214.74L104.04 252.72L104.02 178.13L165.3 140.85Z" id="c37paRk2eB"></path><path d="M157.04 157.76L157.04 162.19L153.38 164.47L153.38 159.99L157.04 157.76Z" id="bv0AgRl49"></path><path d="M149.3 162.32L149.3 166.75L130.26 178.29L130.26 173.82L149.3 162.32Z" id="aIml9eb5E"></path><path d="M147.45 201.55C144.64 210.74 137.31 216.65 131.08 214.75C124.86 212.84 122.09 203.85 124.9 194.66C127.71 185.47 135.03 179.56 141.26 181.46C147.49 183.37 150.26 192.36 147.45 201.55Z" id="dpkoHy4Ah"></path><path d="M202.47 49.14L324.73 122.26L202.47 197.21L80.21 122.26L202.47 49.14Z" id="bkPt6hny5"></path><path d="M80.21 122.26L80.21 270.05L202.1 346L202.15 196.83L80.21 122.26Z" id="b1ZRVjLVJp"></path><path d="M97.35 162.82L97.35 171.69L104.66 176.24L104.66 167.29L97.35 162.82Z" id="aeOV2u2ce"></path><path d="M97.35 180.15L97.35 189.02L104.66 193.57L104.66 184.62L97.35 180.15Z" id="i1x383qSA"></path><path d="M97.35 197.48L97.35 206.35L104.66 210.9L104.66 201.96L97.35 197.48Z" id="aNa7eiBI"></path><path d="M97.35 214.81L97.35 223.68L104.66 228.23L104.66 219.29L97.35 214.81Z" id="gIubuqMn9"></path><path d="M97.35 232.15L97.35 241.01L104.66 245.56L104.66 236.62L97.35 232.15Z" id="a9pUMJGmUB"></path><path d="M97.35 249.48L97.35 258.34L104.66 262.89L104.66 253.95L97.35 249.48Z" id="eaTpl3NgY"></path><path d="M111.03 171.94L111.03 180.81L149.11 203.88L149.11 194.94L111.03 171.94Z" id="b1Bi70OcI9"></path><path d="M158.5 199.81L158.5 208.67L183.71 223.23L183.71 214.28L158.5 199.81Z" id="f6TsKmmEfR"></path><path d="M158.5 216.33L158.5 225.19L183.71 239.74L183.71 230.8L158.5 216.33Z" id="bbxC5nIgR"></path><path d="M158.5 232.84L158.5 241.7L183.71 256.26L183.71 247.31L158.5 232.84Z" id="h1ATOCGksV"></path><path d="M158.5 249.35L158.5 258.22L183.71 272.77L183.71 263.82L158.5 249.35Z" id="a6X0Iwn4R"></path><path d="M158.5 266.9L158.5 275.76L183.71 290.32L183.71 281.37L158.5 266.9Z" id="a2QdnXvQpb"></path><path d="M158.5 284.45L158.5 293.31L183.71 307.86L183.71 298.92L158.5 284.45Z" id="fcvW8qT2"></path><path d="M111.03 188.36L111.03 197.23L149.11 220.3L149.11 211.36L111.03 188.36Z" id="a4wG4adItd"></path><path d="M111.03 204.78L111.03 213.64L149.11 236.72L149.11 227.77L111.03 204.78Z" id="a11urpcKRh"></path><path d="M111.03 222.11L111.03 230.98L149.11 254.05L149.11 245.11L111.03 222.11Z" id="d7MN5qWjJ"></path><path d="M111.03 239.44L111.03 248.31L149.11 271.38L149.11 262.44L111.03 239.44Z" id="cmBpwtYk8"></path><path d="M111.03 256.77L111.03 265.64L149.11 288.71L149.11 279.77L111.03 256.77Z" id="f29UvbvlEH"></path><path d="M324.74 122.26L324.74 270.05L202.21 346L202.16 196.82L324.74 122.26Z" id="f2xV2eN50v"></path><path d="M308.2 156.09L308.2 164.95L300.89 169.51L300.89 160.56L308.2 156.09Z" id="c2IwDCFnBV"></path><path d="M292.73 165.21L292.73 174.07L254.65 197.15L254.65 188.2L292.73 165.21Z" id="a6EdNfBSH"></path><path d="M289.02 243.68C283.4 262.06 268.75 273.87 256.29 270.07C243.84 266.26 238.3 248.27 243.92 229.89C249.54 211.51 264.19 199.69 276.65 203.5C289.1 207.3 294.64 225.29 289.02 243.68Z" id="a1pFMrN9t2"></path><path d="M254.65 228.03L393.39 311.66" id="d4jf7dg2BZ"></path></defs><g><g><g><use xlink:href="#j40dXJqruL" opacity="1" fill="#000000" fill-opacity="0"></use><g><use xlink:href="#j40dXJqruL" opacity="1" fill-opacity="0" stroke="#00c2ff" stroke-width="4" stroke-opacity="1"></use></g></g><g><use xlink:href="#a2FHsc9vlD" opacity="1" fill="#4eedff" fill-opacity="1"></use><g><use xlink:href="#a2FHsc9vlD" opacity="1" fill-opacity="0" stroke="#000000" stroke-width="1" stroke-opacity="0"></use></g></g><g><use xlink:href="#ad7WsWfSM" opacity="1" fill="#00c2ff" fill-opacity="1"></use><g><use xlink:href="#ad7WsWfSM" opacity="1" fill-opacity="0" stroke="#000000" stroke-width="1" stroke-opacity="0"></use></g></g><g><use xlink:href="#a3qOLm9nds" opacity="1" fill="#c9f2ff" fill-opacity="1"></use><g><use xlink:href="#a3qOLm9nds" opacity="1" fill-opacity="0" stroke="#000000" stroke-width="1" stroke-opacity="0"></use></g></g><g><use xlink:href="#b1FLbgEFGz" opacity="1" fill="#c9f2ff" fill-opacity="1"></use><g><use xlink:href="#b1FLbgEFGz" opacity="1" fill-opacity="0" stroke="#000000" stroke-width="1" stroke-opacity="0"></use></g></g><g><use xlink:href="#e13vaoHQl4" opacity="1" fill="#c9f2ff" fill-opacity="1"></use><g><use xlink:href="#e13vaoHQl4" opacity="1" fill-opacity="0" stroke="#000000" stroke-width="1" stroke-opacity="0"></use></g></g><g><use xlink:href="#apSRnDAc2" opacity="1" fill="#c9f2ff" fill-opacity="1"></use><g><use xlink:href="#apSRnDAc2" opacity="1" fill-opacity="0" stroke="#000000" stroke-width="1" stroke-opacity="0"></use></g></g><g><use xlink:href="#j2s9Ygi1O" opacity="1" fill="#c9f2ff" fill-opacity="1"></use><g><use xlink:href="#j2s9Ygi1O" opacity="1" fill-opacity="0" stroke="#000000" stroke-width="1" stroke-opacity="0"></use></g></g><g><use xlink:href="#atQLvOpvV" opacity="1" fill="#c9f2ff" fill-opacity="1"></use><g><use xlink:href="#atQLvOpvV" opacity="1" fill-opacity="0" stroke="#000000" stroke-width="1" stroke-opacity="0"></use></g></g><g><use xlink:href="#e8vqEgEy" opacity="1" fill="#0058cb" fill-opacity="1"></use><g><use xlink:href="#e8vqEgEy" opacity="1" fill-opacity="0" stroke="#000000" stroke-width="1" stroke-opacity="0"></use></g></g><g><use xlink:href="#a26DvbgM5V" opacity="1" fill="#84ffea" fill-opacity="1"></use><g><use xlink:href="#a26DvbgM5V" opacity="1" fill-opacity="0" stroke="#000000" stroke-width="1" stroke-opacity="0"></use></g></g><g><use xlink:href="#ahcLfzTAY" opacity="1" fill="#84ffea" fill-opacity="1"></use><g><use xlink:href="#ahcLfzTAY" opacity="1" fill-opacity="0" stroke="#000000" stroke-width="1" stroke-opacity="0"></use></g></g><g><use xlink:href="#bLYFZep8J" opacity="1" fill="#84ffea" fill-opacity="1"></use><g><use xlink:href="#bLYFZep8J" opacity="1" fill-opacity="0" stroke="#000000" stroke-width="1" stroke-opacity="0"></use></g></g><g><use xlink:href="#c9IvQ3Xmh" opacity="1" fill="#84ffea" fill-opacity="1"></use><g><use xlink:href="#c9IvQ3Xmh" opacity="1" fill-opacity="0" stroke="#000000" stroke-width="1" stroke-opacity="0"></use></g></g><g><use xlink:href="#iuXrRh6JY" opacity="1" fill="#84ffea" fill-opacity="1"></use><g><use xlink:href="#iuXrRh6JY" opacity="1" fill-opacity="0" stroke="#000000" stroke-width="1" stroke-opacity="0"></use></g></g><g><use xlink:href="#a6xOFsYIl" opacity="1" fill="#84ffea" fill-opacity="1"></use><g><use xlink:href="#a6xOFsYIl" opacity="1" fill-opacity="0" stroke="#000000" stroke-width="1" stroke-opacity="0"></use></g></g><g><use xlink:href="#b5Szc2DcUA" opacity="1" fill="#0058cb" fill-opacity="1"></use><g><use xlink:href="#b5Szc2DcUA" opacity="1" fill-opacity="0" stroke="#000000" stroke-width="1" stroke-opacity="0"></use></g></g><g><use xlink:href="#b2oID7Xpv" opacity="1" fill="#0058cb" fill-opacity="1"></use><g><use xlink:href="#b2oID7Xpv" opacity="1" fill-opacity="0" stroke="#000000" stroke-width="1" stroke-opacity="0"></use></g></g><g><use xlink:href="#c3c7In851y" opacity="1" fill="#0058cb" fill-opacity="1"></use><g><use xlink:href="#c3c7In851y" opacity="1" fill-opacity="0" stroke="#000000" stroke-width="1" stroke-opacity="0"></use></g></g><g><use xlink:href="#fvomvrWr3" opacity="1" fill="#0058cb" fill-opacity="1"></use><g><use xlink:href="#fvomvrWr3" opacity="1" fill-opacity="0" stroke="#000000" stroke-width="1" stroke-opacity="0"></use></g></g><g><use xlink:href="#d2UOQgVjWx" opacity="1" fill="#0058cb" fill-opacity="1"></use><g><use xlink:href="#d2UOQgVjWx" opacity="1" fill-opacity="0" stroke="#000000" stroke-width="1" stroke-opacity="0"></use></g></g><g><use xlink:href="#c37paRk2eB" opacity="1" fill="#0060b4" fill-opacity="1"></use><g><use xlink:href="#c37paRk2eB" opacity="1" fill-opacity="0" stroke="#000000" stroke-width="1" stroke-opacity="0"></use></g></g><g><use xlink:href="#bv0AgRl49" opacity="1" fill="#c9f2ff" fill-opacity="1"></use><g><use xlink:href="#bv0AgRl49" opacity="1" fill-opacity="0" stroke="#000000" stroke-width="1" stroke-opacity="0"></use></g></g><g><use xlink:href="#aIml9eb5E" opacity="1" fill="#30ffc7" fill-opacity="1"></use><g><use xlink:href="#aIml9eb5E" opacity="1" fill-opacity="0" stroke="#000000" stroke-width="1" stroke-opacity="0"></use></g></g><g><use xlink:href="#dpkoHy4Ah" opacity="1" fill="#002a4e" fill-opacity="1"></use><g><use xlink:href="#dpkoHy4Ah" opacity="1" fill-opacity="0" stroke="#000000" stroke-width="1" stroke-opacity="0"></use></g></g><g><use xlink:href="#bkPt6hny5" opacity="1" fill="#4eedff" fill-opacity="1"></use><g><use xlink:href="#bkPt6hny5" opacity="1" fill-opacity="0" stroke="#000000" stroke-width="1" stroke-opacity="0"></use></g></g><g><use xlink:href="#b1ZRVjLVJp" opacity="1" fill="#00c2ff" fill-opacity="1"></use><g><use xlink:href="#b1ZRVjLVJp" opacity="1" fill-opacity="0" stroke="#000000" stroke-width="1" stroke-opacity="0"></use></g></g><g><use xlink:href="#aeOV2u2ce" opacity="1" fill="#c9f2ff" fill-opacity="1"></use><g><use xlink:href="#aeOV2u2ce" opacity="1" fill-opacity="0" stroke="#000000" stroke-width="1" stroke-opacity="0"></use></g></g><g><use xlink:href="#i1x383qSA" opacity="1" fill="#c9f2ff" fill-opacity="1"></use><g><use xlink:href="#i1x383qSA" opacity="1" fill-opacity="0" stroke="#000000" stroke-width="1" stroke-opacity="0"></use></g></g><g><use xlink:href="#aNa7eiBI" opacity="1" fill="#c9f2ff" fill-opacity="1"></use><g><use xlink:href="#aNa7eiBI" opacity="1" fill-opacity="0" stroke="#000000" stroke-width="1" stroke-opacity="0"></use></g></g><g><use xlink:href="#gIubuqMn9" opacity="1" fill="#c9f2ff" fill-opacity="1"></use><g><use xlink:href="#gIubuqMn9" opacity="1" fill-opacity="0" stroke="#000000" stroke-width="1" stroke-opacity="0"></use></g></g><g><use xlink:href="#a9pUMJGmUB" opacity="1" fill="#c9f2ff" fill-opacity="1"></use><g><use xlink:href="#a9pUMJGmUB" opacity="1" fill-opacity="0" stroke="#000000" stroke-width="1" stroke-opacity="0"></use></g></g><g><use xlink:href="#eaTpl3NgY" opacity="1" fill="#c9f2ff" fill-opacity="1"></use><g><use xlink:href="#eaTpl3NgY" opacity="1" fill-opacity="0" stroke="#000000" stroke-width="1" stroke-opacity="0"></use></g></g><g><use xlink:href="#b1Bi70OcI9" opacity="1" fill="#0058cb" fill-opacity="1"></use><g><use xlink:href="#b1Bi70OcI9" opacity="1" fill-opacity="0" stroke="#000000" stroke-width="1" stroke-opacity="0"></use></g></g><g><use xlink:href="#f6TsKmmEfR" opacity="1" fill="#84ffea" fill-opacity="1"></use><g><use xlink:href="#f6TsKmmEfR" opacity="1" fill-opacity="0" stroke="#000000" stroke-width="1" stroke-opacity="0"></use></g></g><g><use xlink:href="#bbxC5nIgR" opacity="1" fill="#84ffea" fill-opacity="1"></use><g><use xlink:href="#bbxC5nIgR" opacity="1" fill-opacity="0" stroke="#000000" stroke-width="1" stroke-opacity="0"></use></g></g><g><use xlink:href="#h1ATOCGksV" opacity="1" fill="#84ffea" fill-opacity="1"></use><g><use xlink:href="#h1ATOCGksV" opacity="1" fill-opacity="0" stroke="#000000" stroke-width="1" stroke-opacity="0"></use></g></g><g><use xlink:href="#a6X0Iwn4R" opacity="1" fill="#84ffea" fill-opacity="1"></use><g><use xlink:href="#a6X0Iwn4R" opacity="1" fill-opacity="0" stroke="#000000" stroke-width="1" stroke-opacity="0"></use></g></g><g><use xlink:href="#a2QdnXvQpb" opacity="1" fill="#84ffea" fill-opacity="1"></use><g><use xlink:href="#a2QdnXvQpb" opacity="1" fill-opacity="0" stroke="#000000" stroke-width="1" stroke-opacity="0"></use></g></g><g><use xlink:href="#fcvW8qT2" opacity="1" fill="#84ffea" fill-opacity="1"></use><g><use xlink:href="#fcvW8qT2" opacity="1" fill-opacity="0" stroke="#000000" stroke-width="1" stroke-opacity="0"></use></g></g><g><use xlink:href="#a4wG4adItd" opacity="1" fill="#0058cb" fill-opacity="1"></use><g><use xlink:href="#a4wG4adItd" opacity="1" fill-opacity="0" stroke="#000000" stroke-width="1" stroke-opacity="0"></use></g></g><g><use xlink:href="#a11urpcKRh" opacity="1" fill="#0058cb" fill-opacity="1"></use><g><use xlink:href="#a11urpcKRh" opacity="1" fill-opacity="0" stroke="#000000" stroke-width="1" stroke-opacity="0"></use></g></g><g><use xlink:href="#d7MN5qWjJ" opacity="1" fill="#0058cb" fill-opacity="1"></use><g><use xlink:href="#d7MN5qWjJ" opacity="1" fill-opacity="0" stroke="#000000" stroke-width="1" stroke-opacity="0"></use></g></g><g><use xlink:href="#cmBpwtYk8" opacity="1" fill="#0058cb" fill-opacity="1"></use><g><use xlink:href="#cmBpwtYk8" opacity="1" fill-opacity="0" stroke="#000000" stroke-width="1" stroke-opacity="0"></use></g></g><g><use xlink:href="#f29UvbvlEH" opacity="1" fill="#0058cb" fill-opacity="1"></use><g><use xlink:href="#f29UvbvlEH" opacity="1" fill-opacity="0" stroke="#000000" stroke-width="1" stroke-opacity="0"></use></g></g><g><use xlink:href="#f2xV2eN50v" opacity="1" fill="#0060b4" fill-opacity="1"></use><g><use xlink:href="#f2xV2eN50v" opacity="1" fill-opacity="0" stroke="#000000" stroke-width="1" stroke-opacity="0"></use></g></g><g><use xlink:href="#c2IwDCFnBV" opacity="1" fill="#c9f2ff" fill-opacity="1"></use><g><use xlink:href="#c2IwDCFnBV" opacity="1" fill-opacity="0" stroke="#000000" stroke-width="1" stroke-opacity="0"></use></g></g><g><use xlink:href="#a6EdNfBSH" opacity="1" fill="#30ffc7" fill-opacity="1"></use><g><use xlink:href="#a6EdNfBSH" opacity="1" fill-opacity="0" stroke="#000000" stroke-width="1" stroke-opacity="0"></use></g></g><g><use xlink:href="#a1pFMrN9t2" opacity="1" fill="#002a4e" fill-opacity="1"></use><g><use xlink:href="#a1pFMrN9t2" opacity="1" fill-opacity="0" stroke="#000000" stroke-width="1" stroke-opacity="0"></use></g></g><g><use xlink:href="#d4jf7dg2BZ" opacity="1" fill="#000000" fill-opacity="0"></use><g><use xlink:href="#d4jf7dg2BZ" opacity="1" fill-opacity="0" stroke="#00c2ff" stroke-width="4" stroke-opacity="1"></use></g></g></g></g></svg>